<svg width="762" height="762" viewBox="0 0 762 762" fill="none" xmlns="http://www.w3.org/2000/svg">
<circle cx="382.5" cy="332.5" r="12.5" fill="white"/>
<circle cx="383.5" cy="220.5" r="40.5" fill="white"/>
<circle cx="383.5" cy="76.5" r="76.5" fill="white"/>
<circle cx="347.5" cy="347.5" r="12.5" fill="white"/>
<circle cx="269.5" cy="269.5" r="40.5" fill="white"/>
<circle cx="169" cy="169" r="77" fill="white"/>
<circle cx="332.5" cy="381.5" r="12.5" fill="white"/>
<circle cx="220.5" cy="380.5" r="40.5" fill="white"/>
<circle cx="76.5" cy="378.5" r="76.5" fill="white"/>
<circle cx="381.5" cy="431.5" r="12.5" fill="white"/>
<circle cx="380.5" cy="543.5" r="40.5" fill="white"/>
<circle cx="378.5" cy="685.5" r="76.5" fill="white"/>
<circle cx="346.5" cy="417.5" r="12.5" fill="white"/>
<circle cx="266.5" cy="497.5" r="40.5" fill="white"/>
<circle cx="163.5" cy="598.5" r="76.5" fill="white"/>
<circle cx="431.5" cy="380.5" r="12.5" fill="white"/>
<ellipse cx="543.5" cy="377" rx="40.5" ry="41" fill="white"/>
<ellipse cx="685.5" cy="371.5" rx="76.5" ry="77.5" fill="white"/>
<circle cx="417.5" cy="346.5" r="12.5" fill="white"/>
<circle cx="497.5" cy="266.5" r="40.5" fill="white"/>
<circle cx="598.5" cy="163.5" r="76.5" fill="white"/>
<circle cx="417.5" cy="417.5" r="12.5" fill="white"/>
<circle cx="497.5" cy="497.5" r="40.5" fill="white"/>
<circle cx="598.5" cy="598.5" r="76.5" fill="white"/>
</svg>
